<svg xmlns="http://www.w3.org/2000/svg" version="1.1" xmlns:xlink="http://www.w3.org/1999/xlink" xmlns:svgjs="http://svgjs.dev/svgjs" viewBox="0 0 800 800" opacity="0.28"><defs><symbol id="bbburst-shape-1" viewBox="0 0 194 167"><path d="m97 0 96.129 166.5H.871L97 0Z"></path></symbol><symbol id="bbburst-shape-4" viewBox="0 0 149 143"><path d="M71.647 2.781c.898-2.764 4.808-2.764 5.706 0l15.445 47.534a3 3 0 0 0 2.853 2.073h49.98c2.906 0 4.115 3.719 1.764 5.427L106.96 87.193a2.999 2.999 0 0 0-1.09 3.354l15.445 47.534c.898 2.764-2.266 5.062-4.617 3.354l-40.435-29.378a3 3 0 0 0-3.526 0l-40.435 29.378c-2.351 1.708-5.515-.59-4.617-3.354L43.13 90.547a3 3 0 0 0-1.09-3.354L1.605 57.815c-2.35-1.708-1.142-5.427 1.764-5.427h49.98a3 3 0 0 0 2.853-2.073L71.647 2.781Z"></path></symbol><symbol id="bbburst-shape-6" viewBox="0 0 133 116"><path d="M59.7487 10.2513c-13.6683-13.66839-35.8291-13.66839-49.4974 0-13.66839 13.6683-13.66839 35.8291 0 49.4974l49.4974-49.4974ZM66.5 66.5 41.7513 91.2487 66.5 115.997l24.7487-24.7483L66.5 66.5Zm56.249-6.7513c13.668-13.6683 13.668-35.8291 0-49.4974-13.669-13.66839-35.8294-13.66839-49.4977 0l49.4977 49.4974Zm-112.4977 0 31.5 31.5 49.4974-49.4974-31.5-31.5-49.4974 49.4974Zm80.9974 31.5 31.5003-31.5-49.4977-49.4974-31.5 31.5 49.4974 49.4974Z"></path></symbol></defs><use xlink:href="#bbburst-shape-1" width="20.791532559698727" opacity="0.34477424928067735" transform="matrix(0.9852121985407862,-0.17133862333528455,0.17133862333528455,0.9852121985407862,177.5354651442007,265.19148046903365)" fill="#2c2891"></use><use xlink:href="#bbburst-shape-4" width="11.722673094937486" opacity="0.6571006193919718" transform="matrix(0.7287182777827502,0.6848136035632926,-0.6848136035632926,0.7287182777827502,823.9290189045207,107.14585409677898)" fill="#00a19d"></use><use xlink:href="#bbburst-shape-6" width="14.022101523616437" opacity="0.7466199380713973" transform="matrix(0.9992656114443205,-0.038317591062177456,0.038317591062177456,0.9992656114443205,473.6925889207584,-60.9182886589486)" fill="#ffbd9b"></use><use xlink:href="#bbburst-shape-4" width="28.129915711949415" opacity="0.27216859578049823" transform="matrix(0.9902536086310862,-0.1392759512375039,0.1392759512375039,0.9902536086310862,555.8107500279278,243.4672417484615)" fill="#2c2891"></use><use xlink:href="#bbburst-shape-4" width="15.808466949577562" opacity="0.5751870580785348" transform="matrix(0.9923418463832846,-0.12352190055457246,0.12352190055457246,0.9923418463832846,235.61423444546742,-154.2700513419269)" fill="#ffa6d5"></use><use xlink:href="#bbburst-shape-1" width="28.6271602711671" opacity="0.26939958149914356" transform="matrix(0.9972835433259946,-0.07365822568558857,0.07365822568558857,0.9972835433259946,320.6066627922519,329.0084445613701)" fill="#ff5c58"></use><use xlink:href="#bbburst-shape-6" width="13.765699735893891" opacity="0.720454666509698" transform="matrix(0.9108335903580905,-0.41277375240607317,0.41277375240607317,0.9108335903580905,116.1864378355121,94.924560712762)" fill="#ffa6d5"></use><use xlink:href="#bbburst-shape-1" width="7.753202760226811" opacity="0.8789705189617595" transform="matrix(0.8847806443504344,0.466007737470989,-0.466007737470989,0.8847806443504344,534.2291078314038,68.5947782670292)" fill="#00a19d"></use><use xlink:href="#bbburst-shape-4" width="24.566838706566397" opacity="0.4373475034860588" transform="matrix(0.9994520129743926,-0.0331009631496535,0.0331009631496535,0.9994520129743926,222.31603416734268,203.0141448156112)" fill="#ffa6d5"></use><use xlink:href="#bbburst-shape-4" width="6.364038180013411" opacity="0.9045472974441809" transform="matrix(0.7814836745751393,0.6239256897840781,-0.6239256897840781,0.7814836745751393,660.6400121389922,126.18286846651074)" fill="#2c2891"></use><use xlink:href="#bbburst-shape-6" width="7.6490333143920575" opacity="0.892053120740932" transform="matrix(0.9710256571528225,0.23897525635707373,-0.23897525635707373,0.9710256571528225,456.30724103718217,43.75869019155033)" fill="#00a19d"></use><use xlink:href="#bbburst-shape-4" width="10.505395867313098" opacity="0.6851021388587077" transform="matrix(0.9978798893946916,0.06508245801779447,-0.06508245801779447,0.9978798893946916,524.6866598010627,-95.8465381857456)" fill="#ffa6d5"></use><use xlink:href="#bbburst-shape-6" width="23.130995819318887" opacity="0.34307263455168857" transform="matrix(0.9221086768170689,0.3869309862736175,-0.3869309862736175,0.9221086768170689,291.8147352876682,180.7527534080525)" fill="#ffa6d5"></use><use xlink:href="#bbburst-shape-4" width="29.790222381995036" opacity="0.16135214081309046" transform="matrix(0.9999529636938812,-0.009698989629000499,0.009698989629000499,0.9999529636938812,467.15260273160334,-367.288970962338)" fill="#ff5c58"></use><use xlink:href="#bbburst-shape-4" width="23.226761796181204" opacity="0.45449546744013525" transform="matrix(0.7878357867478122,-0.6158853571237555,0.6158853571237555,0.7878357867478122,-44.670452816845824,248.46365628331415)" fill="#2c2891"></use><use xlink:href="#bbburst-shape-6" width="16.36722206394426" opacity="0.5759576867729224" transform="matrix(0.886967873483394,0.4618311286697184,-0.4618311286697184,0.886967873483394,433.81409984606876,167.02737677376876)" fill="#ffbd9b"></use><use xlink:href="#bbburst-shape-4" width="26.907823679333212" opacity="0.4826357175746282" transform="matrix(0.9690475378534915,0.24687419747735065,-0.24687419747735065,0.9690475378534915,706.3639368440826,-65.1627250232799)" fill="#ffa6d5"></use><use xlink:href="#bbburst-shape-6" width="9.163245108689503" opacity="0.8285285939487294" transform="matrix(0.7854894200406635,-0.6188750851376893,0.6188750851376893,0.7854894200406635,211.88842725252263,44.13915734665693)" fill="#2c2891"></use><use xlink:href="#bbburst-shape-4" width="14.400773648988073" opacity="0.5042288530012848" transform="matrix(0.7132016030110584,0.7009589670319203,-0.7009589670319203,0.7132016030110584,659.7017141604967,-112.87384227948985)" fill="#ffa6d5"></use><use xlink:href="#bbburst-shape-4" width="20.795401665235033" opacity="0.4695235201931507" transform="matrix(0.8830597109100986,0.4692606386299335,-0.4692606386299335,0.8830597109100986,426.5643088008012,-142.19510323302487)" fill="#2c2891"></use><use xlink:href="#bbburst-shape-4" width="6.363825262323132" opacity="0.8671141012334309" transform="matrix(0.7135910147589367,-0.7005625337222302,0.7005625337222302,0.7135910147589367,102.48072593620742,58.91726980090999)" fill="#00a19d"></use><use xlink:href="#bbburst-shape-4" width="8.053107340837837" opacity="0.8178869425743137" transform="matrix(0.7080060626465214,-0.7062063545846708,0.7062063545846708,0.7080060626465214,41.8596044875095,82.03872757105177)" fill="#2c2891"></use><use xlink:href="#bbburst-shape-6" width="25.124144480964528" opacity="0.3945730094690635" transform="matrix(0.7698669620448023,-0.638204403582353,0.638204403582353,0.7698669620448023,297.8887598269151,318.4907825410852)" fill="#2c2891"></use><use xlink:href="#bbburst-shape-6" width="6.627837595819685" opacity="0.9055888319514858" transform="matrix(0.9644606125674489,0.2642266580154648,-0.2642266580154648,0.9644606125674489,498.48871353824984,55.63595993295263)" fill="#00a19d"></use><use xlink:href="#bbburst-shape-4" width="12.062535827355486" opacity="0.6316106825330741" transform="matrix(0.8349791637515789,0.550281560749326,-0.550281560749326,0.8349791637515789,472.8052574231443,147.79840359965698)" fill="#ff5c58"></use><use xlink:href="#bbburst-shape-4" width="8.411782366621525" opacity="0.850093656491614" transform="matrix(0.9650640525548358,-0.2620140730312727,0.2620140730312727,0.9650640525548358,261.82308648014407,75.83926512015654)" fill="#2c2891"></use><use xlink:href="#bbburst-shape-6" width="23.482728656773816" opacity="0.4980072746525922" transform="matrix(0.8089562084334371,0.5878689078672197,-0.5878689078672197,0.8089562084334371,850.9698424786627,53.393113661825055)" fill="#00a19d"></use><use xlink:href="#bbburst-shape-6" width="6.365655456760127" opacity="0.9266974602659513" transform="matrix(0.982909129966273,0.18409139640120112,-0.18409139640120112,0.982909129966273,451.8958700899437,33.48411186909766)" fill="#ffa6d5"></use><use xlink:href="#bbburst-shape-1" width="22.89261142725517" opacity="0.5287799481891928" transform="matrix(0.9318360315781443,0.36287960848289025,-0.36287960848289025,0.9318360315781443,345.5601567779046,119.4511773157771)" fill="#00a19d"></use><use xlink:href="#bbburst-shape-4" width="31.084944422717896" opacity="0.33468779979091756" transform="matrix(0.8493328981627686,0.527857583158973,-0.527857583158973,0.8493328981627686,879.9379762846412,-48.435523368446354)" fill="#ffa6d5"></use><use xlink:href="#bbburst-shape-4" width="30.304066878394828" opacity="0.35367273023928547" transform="matrix(0.9539040832142536,-0.30011164593726514,0.30011164593726514,0.9539040832142536,382.0470626409939,289.49126780230733)" fill="#00a19d"></use><use xlink:href="#bbburst-shape-4" width="15.35929653868435" opacity="0.5712047213812195" transform="matrix(0.9486245595359045,-0.31640392703838416,0.31640392703838416,0.9486245595359045,404.75790897918137,-111.25546959889186)" fill="#ff5c58"></use><use xlink:href="#bbburst-shape-4" width="16.930064990610862" opacity="0.5271134397236392" transform="matrix(0.8110526957715233,-0.5849730973999957,0.5849730973999957,0.8110526957715233,-46.39554847884992,25.47304490471066)" fill="#2c2891"></use><use xlink:href="#bbburst-shape-4" width="9.472225313100596" opacity="0.7834928464131325" transform="matrix(0.9928877671907437,0.11905411275121743,-0.11905411275121743,0.9928877671907437,460.74389040070105,98.07320182947097)" fill="#ffbd9b"></use><use xlink:href="#bbburst-shape-6" width="6.338796927928168" opacity="0.8595796712655464" transform="matrix(0.9986570787107897,0.05180771314033826,-0.05180771314033826,0.9986570787107897,479.9981951275537,10.072655702283612)" fill="#00a19d"></use><use xlink:href="#bbburst-shape-4" width="24.757199165327947" opacity="-0.005515168585842778" transform="matrix(0.9486415659330742,-0.3163529348434193,0.3163529348434193,0.9486415659330742,531.3647041891752,-338.8829973691703)" fill="#00a19d"></use><use xlink:href="#bbburst-shape-1" width="20.81957486482851" opacity="0.490353908345891" transform="matrix(0.9415019499430259,-0.33700753441648734,0.33700753441648734,0.9415019499430259,349.1491710719728,-182.3739119541114)" fill="#00a19d"></use><use xlink:href="#bbburst-shape-1" width="19.4162426786646" opacity="0.17351328195738047" transform="matrix(0.9626450937176229,0.2707663633862026,-0.2707663633862026,0.9626450937176229,518.9855814733295,383.7166080747012)" fill="#2c2891"></use><use xlink:href="#bbburst-shape-4" width="11.945147122738188" opacity="0.7111339130678187" transform="matrix(0.9967034377023803,-0.08113111161728973,0.08113111161728973,0.9967034377023803,259.07784223715987,-78.10752814786377)" fill="#ffbd9b"></use><use xlink:href="#bbburst-shape-4" width="5.736977145067011" opacity="0.888513299809449" transform="matrix(0.8528392694733973,-0.5221735156478946,0.5221735156478946,0.8528392694733973,189.74449883605163,10.208716511261343)" fill="#ffa6d5"></use><use xlink:href="#bbburst-shape-1" width="7.85252439815919" opacity="0.8706678784860482" transform="matrix(0.7818362178234183,-0.6234838638646332,0.6234838638646332,0.7818362178234183,139.92011116455973,147.41944989925884)" fill="#ffa6d5"></use><use xlink:href="#bbburst-shape-1" width="11.569242234979773" opacity="0.6450323034847811" transform="matrix(0.797903123205157,0.60278570485659,-0.60278570485659,0.797903123205157,730.624310636379,-51.68700098029831)" fill="#ffbd9b"></use><use xlink:href="#bbburst-shape-4" width="30.375683993757107" opacity="0.38041749416232695" transform="matrix(0.7913114287213286,-0.6114132994750846,0.6114132994750846,0.7913114287213286,67.87833154168379,361.1630347663736)" fill="#00a19d"></use><use xlink:href="#bbburst-shape-1" width="32.25680367893965" opacity="0.1695030639987294" transform="matrix(0.8903689929299489,0.4552395593848459,-0.4552395593848459,0.8903689929299489,197.85817000965068,90.15712069256341)" fill="#00a19d"></use><use xlink:href="#bbburst-shape-4" width="29.905248294858556" opacity="0.1604289464711911" transform="matrix(0.9738447997011158,-0.22721422951719725,0.22721422951719725,0.9738447997011158,-76.70125436191823,-56.142540012325526)" fill="#00a19d"></use><use xlink:href="#bbburst-shape-4" width="23.288238673328898" opacity="0.1273124412936807" transform="matrix(0.9258838172797655,-0.3778083600179459,0.3778083600179459,0.9258838172797655,610.5179907531916,-90.54666203028012)" fill="#ffbd9b"></use><use xlink:href="#bbburst-shape-6" width="6.335237234502226" opacity="0.8824540727804949" transform="matrix(0.9966868307648474,-0.08133487185656806,0.08133487185656806,0.9966868307648474,326.26673253276255,-35.169485777679256)" fill="#ffa6d5"></use><use xlink:href="#bbburst-shape-1" width="12.911771092288948" opacity="0.7322188810992634" transform="matrix(0.768225096401886,0.6401798194713053,-0.6401798194713053,0.768225096401886,715.7537591128781,190.2791529595463)" fill="#ffa6d5"></use><use xlink:href="#bbburst-shape-4" width="12.934354036552516" opacity="0.741264567807399" transform="matrix(0.9435166726910441,0.33132504939110957,-0.33132504939110957,0.9435166726910441,463.76814287739984,118.59618274405767)" fill="#ff5c58"></use><use xlink:href="#bbburst-shape-6" width="9.007581966414568" opacity="0.8639707895000731" transform="matrix(0.917454518400173,-0.39784068000533396,0.39784068000533396,0.917454518400173,291.7713485745036,61.59984562099021)" fill="#00a19d"></use><use xlink:href="#bbburst-shape-6" width="6.397563268523667" opacity="0.9220345753237817" transform="matrix(0.9833685152606803,-0.18162148329425476,0.18162148329425476,0.9833685152606803,326.35286053122445,-27.785049088083156)" fill="#00a19d"></use><use xlink:href="#bbburst-shape-4" width="9.07401710918332" opacity="0.7882454744949534" transform="matrix(0.7180363162596246,0.696005638290602,-0.696005638290602,0.7180363162596246,722.7529571936504,27.092786657030615)" fill="#ffa6d5"></use><use xlink:href="#bbburst-shape-1" width="31.50038391955303" opacity="0.00018895593816481426" transform="matrix(0.9965331780123405,-0.08319630472938565,0.08319630472938565,0.9965331780123405,-12.656305261924523,267.60786279633635)" fill="#ffa6d5"></use><use xlink:href="#bbburst-shape-4" width="26.72057837804061" opacity="0.18588461283293845" transform="matrix(0.839326669831945,-0.5436273919780139,0.5436273919780139,0.839326669831945,-48.32460064661032,-221.63225478771443)" fill="#2c2891"></use><use xlink:href="#bbburst-shape-4" width="23.051034233752056" opacity="0.39784160147986625" transform="matrix(0.8836167773542773,0.46821084009027547,-0.46821084009027547,0.8836167773542773,573.4514678280136,312.1222382956729)" fill="#00a19d"></use><use xlink:href="#bbburst-shape-1" width="15.694711493614399" opacity="0.6597639366274748" transform="matrix(0.787122131057315,-0.6167971715238252,0.6167971715238252,0.787122131057315,2.4525642903320204,140.14491864991282)" fill="#00a19d"></use><use xlink:href="#bbburst-shape-4" width="5.930867179271108" opacity="0.8669351351006318" transform="matrix(0.9941799605517692,-0.10773210309505107,0.10773210309505107,0.9941799605517692,372.72789430083,-54.208976846437906)" fill="#2c2891"></use><use xlink:href="#bbburst-shape-4" width="29.20148292114288" opacity="0.40447409051884176" transform="matrix(0.8090518655888056,-0.5877372531899551,0.5877372531899551,0.8090518655888056,-112.50734025929157,49.40966717949067)" fill="#00a19d"></use><use xlink:href="#bbburst-shape-4" width="5.4255977601537895" opacity="0.9715413351885709" transform="matrix(0.9656354287849293,-0.25990040145283716,0.25990040145283716,0.9656354287849293,299.7335907882115,25.598440525217768)" fill="#ffbd9b"></use><use xlink:href="#bbburst-shape-1" width="28.90212944493642" opacity="0.3703099475408905" transform="matrix(0.9971831601423466,-0.07500496735898947,0.07500496735898947,0.9971831601423466,74.03321439978075,34.16488729866359)" fill="#ffa6d5"></use><use xlink:href="#bbburst-shape-1" width="5.930078165389448" opacity="0.890743322422949" transform="matrix(0.7201534515532882,0.6938148212714151,-0.6938148212714151,0.7201534515532882,652.9787845225651,153.64983896265284)" fill="#ffbd9b"></use><use xlink:href="#bbburst-shape-1" width="19.220992477144073" opacity="0.591659398628477" transform="matrix(0.725671978878587,0.688040826601471,-0.688040826601471,0.725671978878587,489.5963917436249,146.22975620687697)" fill="#00a19d"></use><use xlink:href="#bbburst-shape-1" width="12.272874335663072" opacity="0.6912237388630789" transform="matrix(0.9562583557261466,0.2925234300084807,-0.2925234300084807,0.9562583557261466,455.315792338297,142.96034946331542)" fill="#00a19d"></use><use xlink:href="#bbburst-shape-4" width="10.974702612128748" opacity="0.7521579363752198" transform="matrix(0.9346393174241875,-0.35559716861196855,0.35559716861196855,0.9346393174241875,143.99076366086308,2.9072265859751383)" fill="#2c2891"></use><use xlink:href="#bbburst-shape-4" width="21.51020937682207" opacity="0.4121680775272668" transform="matrix(0.9907132167519218,-0.13596809240796007,0.13596809240796007,0.9907132167519218,524.0012212472477,-179.8349958427672)" fill="#ff5c58"></use><use xlink:href="#bbburst-shape-6" width="14.67200447078079" opacity="0.5505644858391481" transform="matrix(0.9819617050242291,-0.18907990338983366,0.18907990338983366,0.9819617050242291,196.9907276664481,171.27317795494696)" fill="#2c2891"></use><use xlink:href="#bbburst-shape-4" width="11.840113127974378" opacity="0.7314951110797225" transform="matrix(0.975193000931635,-0.22135629860917036,0.22135629860917036,0.975193000931635,347.0771698991181,124.76040161788524)" fill="#ff5c58"></use><use xlink:href="#bbburst-shape-1" width="14.175251282740199" opacity="0.5978115272155413" transform="matrix(0.9949705392195648,0.10016798932357796,-0.10016798932357796,0.9949705392195648,514.6612691865888,-160.2012722538126)" fill="#ff5c58"></use><use xlink:href="#bbburst-shape-4" width="19.602226029052087" opacity="0.4477813888325495" transform="matrix(0.9146830278434783,-0.4041719418454066,0.4041719418454066,0.9146830278434783,475.4560628135731,72.67046821104344)" fill="#ffa6d5"></use><use xlink:href="#bbburst-shape-4" width="14.856042268696504" opacity="0.615425882603199" transform="matrix(0.9245965297037072,0.38094784060270215,-0.38094784060270215,0.9245965297037072,504.8030874494434,195.54779836373194)" fill="#2c2891"></use><use xlink:href="#bbburst-shape-4" width="28.915179181707295" opacity="0.0911820105946074" transform="matrix(0.9813957281165884,-0.19199589796272037,0.19199589796272037,0.9813957281165884,128.49661426833268,-356.72665479226976)" fill="#2c2891"></use><use xlink:href="#bbburst-shape-1" width="26.124803220726793" opacity="0.3284090399282402" transform="matrix(0.8206166591250353,0.5714790449058176,-0.5714790449058176,0.8206166591250353,357.6853160773869,-89.46027262455868)" fill="#ffa6d5"></use><use xlink:href="#bbburst-shape-1" width="10.620764788030392" opacity="0.741894649201604" transform="matrix(0.7655881544209049,0.643331001748239,-0.643331001748239,0.7655881544209049,728.1793495371983,1.6063276044221766)" fill="#ffa6d5"></use><use xlink:href="#bbburst-shape-4" width="33.58067214840544" opacity="0.1427167786540139" transform="matrix(0.9988971912338239,-0.046951052652494316,0.046951052652494316,0.9988971912338239,618.4972386675108,-289.0568298216336)" fill="#ffbd9b"></use><use xlink:href="#bbburst-shape-4" width="29.879819362337823" opacity="0.04060488261290973" transform="matrix(0.7908012429258555,0.6120730301090892,-0.6120730301090892,0.7908012429258555,989.4677445684075,-168.99681069331197)" fill="#2c2891"></use><use xlink:href="#bbburst-shape-4" width="35.825413586280405" opacity="0.2908923407526858" transform="matrix(0.88200384875738,0.4712421996990175,-0.4712421996990175,0.88200384875738,268.3032519828037,-57.011441887193314)" fill="#2c2891"></use><use xlink:href="#bbburst-shape-4" width="8.919950704003345" opacity="0.7900942415803948" transform="matrix(0.8184159522821975,0.5746262516192797,-0.5746262516192797,0.8184159522821975,714.5869250104354,36.77229959200048)" fill="#2c2891"></use><use xlink:href="#bbburst-shape-6" width="25.010188894278205" opacity="0.2499190978625797" transform="matrix(0.81471087014099,-0.579867396974611,0.579867396974611,0.81471087014099,-179.46006631121713,69.4293592290083)" fill="#2c2891"></use><use xlink:href="#bbburst-shape-4" width="27.966230028480034" opacity="0.3749407880105178" transform="matrix(0.9234883070871972,-0.38362657190713806,0.38362657190713806,0.9234883070871972,149.15096831863448,-232.29317772606322)" fill="#ff5c58"></use><use xlink:href="#bbburst-shape-6" width="10.384911250265468" opacity="0.8105595885797208" transform="matrix(0.9992404671479542,-0.038967792007478755,0.038967792007478755,0.9992404671479542,461.39409539552423,23.208485186834594)" fill="#ffa6d5"></use><use xlink:href="#bbburst-shape-4" width="24.020143559745687" opacity="0.2896040697789476" transform="matrix(0.9982780655805192,-0.05865921735598422,0.05865921735598422,0.9982780655805192,318.95778013203744,-314.9955227850625)" fill="#ffbd9b"></use><use xlink:href="#bbburst-shape-1" width="5.91024917041886" opacity="0.8781325369935458" transform="matrix(0.9691887460925303,0.24631925309968963,-0.24631925309968963,0.9691887460925303,441.5427873195049,20.469788168389584)" fill="#ffbd9b"></use><use xlink:href="#bbburst-shape-4" width="5.6676303250580515" opacity="0.9003750070680933" transform="matrix(0.9935270003615074,-0.11359621275669926,0.11359621275669926,0.9935270003615074,336.3935072343616,-39.20411499815606)" fill="#ffa6d5"></use><use xlink:href="#bbburst-shape-4" width="23.88315735325612" opacity="0.2382699567366372" transform="matrix(0.8675984846162939,0.4972653914073555,-0.4972653914073555,0.8675984846162939,853.3327025046356,-170.62638003542784)" fill="#2c2891"></use><use xlink:href="#bbburst-shape-4" width="32.15492910825319" opacity="-0.10452109844131985" transform="matrix(0.9269596407030836,0.37516106475434013,-0.37516106475434013,0.9269596407030836,191.30849727181845,382.1211699360065)" fill="#00a19d"></use><use xlink:href="#bbburst-shape-4" width="14.960710540359226" opacity="0.5669493797335474" transform="matrix(0.7366724405070232,-0.6762497433621889,0.6762497433621889,0.7366724405070232,-18.015706304952687,-23.044397123769897)" fill="#ffbd9b"></use><use xlink:href="#bbburst-shape-4" width="27.76922283006388" opacity="0.04211889563434579" transform="matrix(0.9896845251251709,-0.14326388493882505,0.14326388493882505,0.9896845251251709,103.08914790656243,373.2710138603412)" fill="#00a19d"></use><use xlink:href="#bbburst-shape-1" width="5.311336350706604" opacity="0.9182285804165558" transform="matrix(0.9685028777052918,-0.249002361186734,0.249002361186734,0.9685028777052918,276.47314876635045,-16.699366079168044)" fill="#00a19d"></use><use xlink:href="#bbburst-shape-6" width="8.285918874685336" opacity="0.8388648652823358" transform="matrix(0.7607920982882324,-0.6489956726991241,0.6489956726991241,0.7607920982882324,67.46588953928284,118.0700979455396)" fill="#2c2891"></use><use xlink:href="#bbburst-shape-4" width="24.987930158162538" opacity="0.21317497862940882" transform="matrix(0.7697551970447163,0.6383392018532545,-0.6383392018532545,0.7697551970447163,363.5999186381955,-129.8315290211989)" fill="#ff5c58"></use><use xlink:href="#bbburst-shape-4" width="5.972981145247628" opacity="0.86679191291916" transform="matrix(0.9869795616458296,-0.1608457176719548,0.1608457176719548,0.9869795616458296,299.71678952378534,-44.34967618046028)" fill="#ffa6d5"></use><use xlink:href="#bbburst-shape-4" width="29.888973784304284" opacity="0.3825577005315991" transform="matrix(0.9252377936233928,0.3793876978117714,-0.3793876978117714,0.9252377936233928,773.766846243304,-122.62473174679167)" fill="#00a19d"></use><use xlink:href="#bbburst-shape-6" width="10.964284489357565" opacity="0.7781072994586229" transform="matrix(0.9162281400072344,-0.4006569548365329,0.4006569548365329,0.9162281400072344,226.9319277923225,135.25328922222013)" fill="#2c2891"></use><use xlink:href="#bbburst-shape-6" width="28.013450572726047" opacity="0.3667014832856368" transform="matrix(0.8535679565786044,0.5209815193480721,-0.5209815193480721,0.8535679565786044,866.9334514580618,140.98421513067922)" fill="#ff5c58"></use><use xlink:href="#bbburst-shape-1" width="25.406204986666555" opacity="0.42792071268380316" transform="matrix(0.9816771566804215,-0.1905517253971821,0.1905517253971821,0.9816771566804215,366.5032865241745,261.232481413302)" fill="#00a19d"></use><use xlink:href="#bbburst-shape-6" width="7.613444031517858" opacity="0.8017682164515113" transform="matrix(0.7799323169309098,0.6258638677913775,-0.6258638677913775,0.7799323169309098,614.5526548477028,168.59043597788548)" fill="#ff5c58"></use><use xlink:href="#bbburst-shape-6" width="7.332407004034018" opacity="0.8278391542056682" transform="matrix(0.9903260147962771,0.13876016870025734,-0.13876016870025734,0.9903260147962771,432.3586157634535,-71.61334217575671)" fill="#ffa6d5"></use><use xlink:href="#bbburst-shape-4" width="10.431495382678953" opacity="0.7445507638054841" transform="matrix(0.8733142984214081,0.487157198625581,-0.487157198625581,0.8733142984214081,514.9679609670908,-38.683407689938235)" fill="#2c2891"></use><use xlink:href="#bbburst-shape-4" width="9.137522081415211" opacity="0.7953791860959372" transform="matrix(0.9392019554771104,0.34336523823469955,-0.34336523823469955,0.9392019554771104,598.8254000668354,-41.68165121797142)" fill="#2c2891"></use><use xlink:href="#bbburst-shape-1" width="10.489203838611456" opacity="0.7770072658233285" transform="matrix(0.7910005963034772,0.6118153779103166,-0.6118153779103166,0.7910005963034772,561.5417267045821,18.562473912696134)" fill="#ffa6d5"></use><use xlink:href="#bbburst-shape-6" width="5.968284924567989" opacity="0.921430908939001" transform="matrix(0.9993438097203942,-0.03622084998352029,0.03622084998352029,0.9993438097203942,351.821212048665,17.893636555133526)" fill="#00a19d"></use><use xlink:href="#bbburst-shape-4" width="5.8860022321913235" opacity="0.9721147308556948" transform="matrix(0.7924151333401869,0.6099821771604921,-0.6099821771604921,0.7924151333401869,629.3529690174053,78.78140283756323)" fill="#2c2891"></use><use xlink:href="#bbburst-shape-6" width="5.304319859217037" opacity="0.9376067573859539" transform="matrix(0.9610735987651682,0.2762924858851006,-0.2762924858851006,0.9610735987651682,500.79666228183663,-12.307810591041743)" fill="#ffbd9b"></use><use xlink:href="#bbburst-shape-6" width="12.78414918104948" opacity="0.7337475182742332" transform="matrix(0.966642091432398,0.2561309568779211,-0.2561309568779211,0.966642091432398,513.270913383523,-106.8957247764514)" fill="#2c2891"></use><use xlink:href="#bbburst-shape-6" width="11.611850398898707" opacity="0.7839548928426108" transform="matrix(0.9622986385434165,0.27199509234081237,-0.27199509234081237,0.9622986385434165,410.9554568279993,44.172514445560864)" fill="#2c2891"></use><use xlink:href="#bbburst-shape-6" width="19.956740679174253" opacity="0.4824625228117998" transform="matrix(0.8208032194714062,0.5712110598591159,-0.5712110598591159,0.8208032194714062,831.3413575546269,164.45579328064906)" fill="#ffa6d5"></use><use xlink:href="#bbburst-shape-6" width="34.154874223097835" opacity="0.02796346591573018" transform="matrix(0.8399168798811687,-0.5427150586547995,0.5427150586547995,0.8399168798811687,409.8856322295469,438.13071899346005)" fill="#ffa6d5"></use><use xlink:href="#bbburst-shape-6" width="35.64476940250271" opacity="0.1079071685168409" transform="matrix(0.9864917518541334,-0.16381093835200045,0.16381093835200045,0.9864917518541334,-51.55628725538865,167.69651281694405)" fill="#00a19d"></use><use xlink:href="#bbburst-shape-4" width="6.780556204261455" opacity="0.9446128117984414" transform="matrix(0.8529054298165231,0.5220654439718186,-0.5220654439718186,0.8529054298165231,626.4975452278721,71.15324442261328)" fill="#ff5c58"></use><use xlink:href="#bbburst-shape-6" width="19.590145330061862" opacity="0.6147129818922044" transform="matrix(0.8681475670191621,-0.4963061574055972,0.4963061574055972,0.8681475670191621,22.102209633189773,28.223460027663123)" fill="#ffa6d5"></use><use xlink:href="#bbburst-shape-4" width="32.3224154091276" opacity="0.3171674081473952" transform="matrix(0.9657558407593358,-0.2594526084648764,0.2594526084648764,0.9657558407593358,325.75706840506734,-286.0221198773366)" fill="#2c2891"></use><use xlink:href="#bbburst-shape-4" width="26.67398567451314" opacity="0.17211321074820274" transform="matrix(0.9960943206544236,-0.0882955511903196,0.0882955511903196,0.9960943206544236,723.8072081190429,13.00611413882882)" fill="#ffa6d5"></use><use xlink:href="#bbburst-shape-6" width="6.748562856811198" opacity="0.8051696539327969" transform="matrix(0.9983503777032617,-0.05741535804777883,0.05741535804777883,0.9983503777032617,317.37304564832476,-66.36143591530578)" fill="#ffbd9b"></use><use xlink:href="#bbburst-shape-4" width="7.084255948152739" opacity="0.8340227496608876" transform="matrix(0.8572447412940186,0.5149091701686338,-0.5149091701686338,0.8572447412940186,537.8005310341168,91.85574342864612)" fill="#2c2891"></use><use xlink:href="#bbburst-shape-1" width="19.340843212929936" opacity="0.5758054312158138" transform="matrix(0.9414190176096123,-0.3372391336766129,0.3372391336766129,0.9414190176096123,181.71715731913858,-149.1203293748608)" fill="#ffa6d5"></use><use xlink:href="#bbburst-shape-6" width="25.724621445672923" opacity="0.5281015870270576" transform="matrix(0.995083818726778,0.09903632519501528,-0.09903632519501528,0.995083818726778,607.0227068705758,-111.64443033479733)" fill="#ffa6d5"></use><use xlink:href="#bbburst-shape-4" width="14.727204832162494" opacity="0.5541020203710758" transform="matrix(0.7619999796078014,0.647577046441356,-0.647577046441356,0.7619999796078014,711.9972157737471,282.3524132996342)" fill="#ffbd9b"></use><use xlink:href="#bbburst-shape-1" width="27.151842475238205" opacity="0.21010305504485638" transform="matrix(0.9556203462304379,-0.2946010079249867,0.2946010079249867,0.9556203462304379,134.8814180358856,350.88466287829914)" fill="#00a19d"></use><use xlink:href="#bbburst-shape-6" width="28.322713838083796" opacity="0.20096556271882204" transform="matrix(0.7811910685985005,-0.6242920104742115,0.6242920104742115,0.7811910685985005,-64.01883711039966,392.980633929255)" fill="#ffa6d5"></use><use xlink:href="#bbburst-shape-4" width="24.008958468046934" opacity="0.39809215426152655" transform="matrix(0.9712845208579884,0.23792095229648827,-0.23792095229648827,0.9712845208579884,472.0424002105485,-261.96472006580325)" fill="#00a19d"></use><use xlink:href="#bbburst-shape-4" width="9.869306267923449" opacity="0.7740568445115821" transform="matrix(0.9971986370544736,-0.07479891882039612,0.07479891882039612,0.9971986370544736,263.62979605267986,6.907221008265765)" fill="#00a19d"></use><use xlink:href="#bbburst-shape-4" width="25.550175567648047" opacity="0.49778756058211804" transform="matrix(0.9250603250337326,0.37982021411252587,-0.37982021411252587,0.9250603250337326,644.5169621360243,225.57316628481135)" fill="#00a19d"></use><use xlink:href="#bbburst-shape-4" width="9.919856449005058" opacity="0.7807494972762877" transform="matrix(0.819274394625661,0.5734016622846125,-0.5734016622846125,0.819274394625661,723.6281557241219,61.4333804021806)" fill="#2c2891"></use><use xlink:href="#bbburst-shape-4" width="30.529385648096408" opacity="0.18725882784541192" transform="matrix(0.9803160890143663,-0.19743445904800197,0.19743445904800197,0.9803160890143663,310.0255523070026,-354.79759257740324)" fill="#00a19d"></use><use xlink:href="#bbburst-shape-1" width="4.73750366631231" opacity="0.9422667080782079" transform="matrix(0.7378536176894015,0.6749607683878097,-0.6749607683878097,0.7378536176894015,642.2768129234528,104.39014559021842)" fill="#ffa6d5"></use><use xlink:href="#bbburst-shape-4" width="25.786644216622435" opacity="0.3750184088602807" transform="matrix(0.999986346513587,0.00522558957518924,-0.00522558957518924,0.999986346513587,669.0953853732647,-27.49336896225742)" fill="#00a19d"></use><use xlink:href="#bbburst-shape-4" width="5.999896111884891" opacity="0.851132669253166" transform="matrix(0.9935127793291467,0.11372052281657104,-0.11372052281657104,0.9935127793291467,375.5314784369002,0.8565359287102865)" fill="#2c2891"></use><use xlink:href="#bbburst-shape-4" width="4.568680858010842" opacity="0.9585557652545327" transform="matrix(0.9657564652044122,0.25945028409288556,-0.25945028409288556,0.9657564652044122,491.1592563040457,-2.3629913573009844)" fill="#2c2891"></use><use xlink:href="#bbburst-shape-1" width="14.74287919579296" opacity="0.7468937243096028" transform="matrix(0.8187069304300332,0.5742116004277803,-0.5742116004277803,0.8187069304300332,707.4663806789533,145.4079206117333)" fill="#00a19d"></use><use xlink:href="#bbburst-shape-1" width="25.768649702040726" opacity="0.22291080124625284" transform="matrix(0.9858016691543299,0.16791387403230607,-0.16791387403230607,0.9858016691543299,799.6996014281049,-52.05580638524725)" fill="#00a19d"></use><use xlink:href="#bbburst-shape-1" width="7.109927760128157" opacity="0.8833009375046994" transform="matrix(0.9747091163943551,0.223477377865715,-0.223477377865715,0.9747091163943551,434.06758618739786,1.0417277613146894)" fill="#ffa6d5"></use><use xlink:href="#bbburst-shape-6" width="14.853275560346574" opacity="0.579459881928212" transform="matrix(0.9959447790963439,0.08996664376720274,-0.08996664376720274,0.9959447790963439,392.37467999516514,-184.7913552115484)" fill="#ffa6d5"></use><use xlink:href="#bbburst-shape-1" width="26.846160540886437" opacity="0.10496140966716261" transform="matrix(0.9504654061719625,0.3108303583473891,-0.3108303583473891,0.9504654061719625,691.3971130959313,-344.7160935113831)" fill="#ffbd9b"></use><use xlink:href="#bbburst-shape-4" width="12.987218642670387" opacity="0.5885173449985058" transform="matrix(0.9269760547383515,0.3751205058934004,-0.3751205058934004,0.9269760547383515,550.9826902740369,-158.25178369995297)" fill="#ff5c58"></use><use xlink:href="#bbburst-shape-4" width="18.934576110778867" opacity="0.5923074361740321" transform="matrix(0.8619345402995495,-0.5070195738219623,0.5070195738219623,0.8619345402995495,355.6140652668718,136.9272656585938)" fill="#ffbd9b"></use><use xlink:href="#bbburst-shape-6" width="18.706130601480496" opacity="0.15192726145810087" transform="matrix(0.810472945007789,-0.5857760710462672,0.5857760710462672,0.810472945007789,77.07624731254248,-291.6407643544583)" fill="#ffbd9b"></use><use xlink:href="#bbburst-shape-4" width="25.29160189140208" opacity="0.4495215152705233" transform="matrix(0.7293885429620872,-0.6840996662735945,0.6840996662735945,0.7293885429620872,-78.69086926805406,-34.77289377808023)" fill="#00a19d"></use><use xlink:href="#bbburst-shape-4" width="20.63755538451128" opacity="0.4916265638793398" transform="matrix(0.8018006291561659,0.5975916256815992,-0.5975916256815992,0.8018006291561659,764.0783801304775,-112.77178498369184)" fill="#ffa6d5"></use><use xlink:href="#bbburst-shape-4" width="7.300648233126153" opacity="0.8544738713149169" transform="matrix(0.8111955875771636,-0.5847749299477025,0.5847749299477025,0.8111955875771636,118.25832379791066,125.35662608265028)" fill="#00a19d"></use><use xlink:href="#bbburst-shape-1" width="5.742274835334888" opacity="0.9007172027093813" transform="matrix(0.9659167136180509,-0.258853051659246,0.258853051659246,0.9659167136180509,311.20537292381067,-26.71595438827535)" fill="#ffa6d5"></use><use xlink:href="#bbburst-shape-1" width="7.414574329951243" opacity="0.8026056095520024" transform="matrix(0.9879634950253018,-0.15468720857714915,0.15468720857714915,0.9879634950253018,326.4307867981448,-83.06598117558275)" fill="#ffbd9b"></use><use xlink:href="#bbburst-shape-4" width="6.904789658278504" opacity="0.8545320701403288" transform="matrix(0.998217863805624,0.05967492253314286,-0.05967492253314286,0.998217863805624,468.3763460038479,45.07309887025747)" fill="#00a19d"></use><use xlink:href="#bbburst-shape-4" width="5.744040014094846" opacity="0.9380147622922113" transform="matrix(0.9996358485952803,-0.02698462901716265,0.02698462901716265,0.9996358485952803,397.8024716412833,25.655581679177544)" fill="#2c2891"></use><use xlink:href="#bbburst-shape-4" width="21.266442701087595" opacity="0.13686884160593837" transform="matrix(0.7940200403130362,-0.6078915820944425,0.6078915820944425,0.7940200403130362,520.3693123884353,200.71659699712364)" fill="#ff5c58"></use><use xlink:href="#bbburst-shape-1" width="11.454779320688104" opacity="0.7569891027980563" transform="matrix(0.7866034099286666,-0.6174585617582722,0.6174585617582722,0.7866034099286666,113.50402154045764,192.50369878236432)" fill="#00a19d"></use><use xlink:href="#bbburst-shape-1" width="11.8363350104503" opacity="0.6588339790285128" transform="matrix(0.7779646737645411,0.62830801870932,-0.62830801870932,0.7779646737645411,550.7651037102255,204.95958429547386)" fill="#ffa6d5"></use><use xlink:href="#bbburst-shape-1" width="12.425157476642596" opacity="0.6654540177230042" transform="matrix(0.9964548164918912,-0.0841296540472595,0.0841296540472595,0.9964548164918912,311.8971909574622,-140.64349498512883)" fill="#ff5c58"></use><use xlink:href="#bbburst-shape-4" width="5.834433920425293" opacity="0.861051492058081" transform="matrix(0.9467036667028667,-0.3221058326875617,0.3221058326875617,0.9467036667028667,213.86096236854985,-8.320376450637411)" fill="#ffa6d5"></use><use xlink:href="#bbburst-shape-6" width="5.66788877317542" opacity="0.9366803604742072" transform="matrix(0.8334988862713305,-0.5525211367761886,0.5525211367761886,0.8334988862713305,189.47716224594384,42.73333861287091)" fill="#00a19d"></use><use xlink:href="#bbburst-shape-1" width="7.136934402253463" opacity="0.9009135842578443" transform="matrix(0.941927186702801,0.3358171748885793,-0.3358171748885793,0.941927186702801,575.2931604911645,26.831701481473488)" fill="#ff5c58"></use><use xlink:href="#bbburst-shape-1" width="6.615236201036044" opacity="0.8780938419104632" transform="matrix(0.8058024097991605,-0.5921844952055616,0.5921844952055616,0.8058024097991605,214.53019493783998,70.34763814013218)" fill="#00a19d"></use><use xlink:href="#bbburst-shape-1" width="10.113558024193512" opacity="0.7529230577642931" transform="matrix(0.9478134340587883,-0.31882549179400177,0.31882549179400177,0.9478134340587883,190.0601405774663,102.10457934171501)" fill="#2c2891"></use><use xlink:href="#bbburst-shape-1" width="7.757478276727989" opacity="0.8658943655748799" transform="matrix(0.9920744513878346,-0.1256514341483102,0.1256514341483102,0.9920744513878346,359.3819477144873,62.48813486286167)" fill="#00a19d"></use><use xlink:href="#bbburst-shape-4" width="10.817084779767802" opacity="0.6632961361041161" transform="matrix(0.9879700618164133,0.15464526166188322,-0.15464526166188322,0.9879700618164133,356.3510767291967,-109.70244392186771)" fill="#ffa6d5"></use><use xlink:href="#bbburst-shape-6" width="26.64557679956892" opacity="0.2649534839647736" transform="matrix(0.8747283806992191,-0.4846135161129144,0.4846135161129144,0.8747283806992191,-120.31131748366317,158.0674074781324)" fill="#00a19d"></use><use xlink:href="#bbburst-shape-1" width="7.59571810807936" opacity="0.8170188669339542" transform="matrix(0.85855988628035,-0.512713293830258,0.512713293830258,0.85855988628035,109.52001814563454,64.30320227934493)" fill="#ffa6d5"></use><use xlink:href="#bbburst-shape-1" width="24.717818309891086" opacity="0.4980841069006954" transform="matrix(0.9926696236651285,0.12085949798229452,-0.12085949798229452,0.9926696236651285,347.8414374691944,209.386277533223)" fill="#00a19d"></use><use xlink:href="#bbburst-shape-1" width="7.8378282060699265" opacity="0.7945272489407069" transform="matrix(0.9744204466644738,0.22473271484634222,-0.22473271484634222,0.9744204466644738,496.21262337101984,-82.54404187178255)" fill="#ffbd9b"></use><use xlink:href="#bbburst-shape-4" width="7.403075760682581" opacity="0.8080248875088556" transform="matrix(0.8372702303616684,0.5467893208084068,-0.5467893208084068,0.8372702303616684,649.6566014986106,142.47159864994325)" fill="#00a19d"></use><use xlink:href="#bbburst-shape-1" width="5.8379652568316605" opacity="0.997078309942779" transform="matrix(0.8149313476580086,0.5795575024139554,-0.5795575024139554,0.8149313476580086,628.9635378407766,71.11643151701134)" fill="#00a19d"></use><use xlink:href="#bbburst-shape-1" width="7.108218674974037" opacity="0.8338463179703923" transform="matrix(0.9904991208163939,0.13751905926798155,-0.13751905926798155,0.9904991208163939,416.50477210335373,-62.76062981390908)" fill="#2c2891"></use><use xlink:href="#bbburst-shape-6" width="8.788542838816262" opacity="0.846189106907977" transform="matrix(0.9344040552294403,-0.35621490924830357,0.35621490924830357,0.9344040552294403,255.3190053910158,-41.3847348890111)" fill="#2c2891"></use><use xlink:href="#bbburst-shape-6" width="12.761535971409037" opacity="0.6110443022416722" transform="matrix(0.8046174841315356,0.5937934861800339,-0.5937934861800339,0.8046174841315356,643.0192713207612,249.0708752633555)" fill="#2c2891"></use><use xlink:href="#bbburst-shape-4" width="20.767320937708277" opacity="0.48787353302464076" transform="matrix(0.9102465987871734,-0.41406657604349406,0.41406657604349406,0.9102465987871734,161.09894460929308,-181.22279078335015)" fill="#2c2891"></use><use xlink:href="#bbburst-shape-4" width="14.292431577314536" opacity="0.6597647076498303" transform="matrix(0.9345171818926877,-0.3559180197002524,0.3559180197002524,0.9345171818926877,175.6372600559098,-104.54803901245037)" fill="#ff5c58"></use><use xlink:href="#bbburst-shape-4" width="21.6508262919561" opacity="0.4536851018680679" transform="matrix(0.8566307238127085,-0.5159300369431062,0.5159300369431062,0.8566307238127085,371.8000349012913,222.02877656579994)" fill="#ff5c58"></use><use xlink:href="#bbburst-shape-4" width="5.710318548437303" opacity="0.8682658040184994" transform="matrix(0.8290631235198944,0.559155020740614,-0.559155020740614,0.8290631235198944,659.2367076920661,21.23737469201967)" fill="#2c2891"></use><use xlink:href="#bbburst-shape-6" width="10.963553261064941" opacity="0.6928667273397233" transform="matrix(0.9912830579452925,0.13174937962142372,-0.13174937962142372,0.9912830579452925,341.2297175792224,91.41208082851603)" fill="#00a19d"></use><use xlink:href="#bbburst-shape-4" width="11.160787167840574" opacity="0.6964324983217656" transform="matrix(0.9621025749591208,0.2726877981447454,-0.2726877981447454,0.9621025749591208,496.37718158424485,-122.76177236633168)" fill="#00a19d"></use><use xlink:href="#bbburst-shape-6" width="8.087770974870192" opacity="0.802480064087107" transform="matrix(0.9598477079768332,0.28052161679916926,-0.28052161679916926,0.9598477079768332,421.13206130164144,-2.3182296042280655)" fill="#ffbd9b"></use><use xlink:href="#bbburst-shape-1" width="5.338741744346324" opacity="0.9103727096345522" transform="matrix(0.9569708232674524,-0.2901841543137983,0.2901841543137983,0.9569708232674524,241.59185273246788,24.632704641958867)" fill="#ffa6d5"></use><use xlink:href="#bbburst-shape-6" width="5.958552133590531" opacity="0.937491425912018" transform="matrix(0.9384223472009073,0.3454902289123958,-0.3454902289123958,0.9384223472009073,531.9555320998816,51.5189605947225)" fill="#2c2891"></use><use xlink:href="#bbburst-shape-4" width="8.022348342778429" opacity="0.8784366333599641" transform="matrix(0.8498402037903835,-0.5270404424913894,0.5270404424913894,0.8498402037903835,231.8596762486713,32.704905481634455)" fill="#ffa6d5"></use><use xlink:href="#bbburst-shape-1" width="21.981145396581148" opacity="0.43135353717215097" transform="matrix(0.7754582513529248,0.6313988441616473,-0.6313988441616473,0.7754582513529248,406.9099301295936,-13.326914382517032)" fill="#2c2891"></use><use xlink:href="#bbburst-shape-6" width="9.305047537524047" opacity="0.8610060123690028" transform="matrix(0.9297302134258817,0.3682414021305377,-0.3682414021305377,0.9297302134258817,574.3700748416595,80.48965643845725)" fill="#2c2891"></use><use xlink:href="#bbburst-shape-6" width="35.06061255643564" opacity="0.1347161421461195" transform="matrix(0.9201250676205609,-0.3916246416356589,0.3916246416356589,0.9201250676205609,-128.94446423511624,-118.5429736519495)" fill="#2c2891"></use><use xlink:href="#bbburst-shape-4" width="9.206484400318459" opacity="0.7274111569695112" transform="matrix(0.7960755314201201,0.6051972804583423,-0.6051972804583423,0.7960755314201201,603.9334262981461,-38.92991769665957)" fill="#ffa6d5"></use><use xlink:href="#bbburst-shape-4" width="18.060067226633308" opacity="0.6288725097670121" transform="matrix(0.9481176402196992,-0.31791970732282226,0.31791970732282226,0.9481176402196992,343.8598649223918,170.46517288879306)" fill="#2c2891"></use><use xlink:href="#bbburst-shape-6" width="11.480992717987178" opacity="0.7279973510238061" transform="matrix(0.9271852320027887,0.37460318412412735,-0.37460318412412735,0.9271852320027887,484.1052885985689,-79.47751980503477)" fill="#ffa6d5"></use><use xlink:href="#bbburst-shape-6" width="16.74672318613085" opacity="0.6111048288933943" transform="matrix(0.7444033819195612,-0.6677301887639346,0.6677301887639346,0.7444033819195612,48.90850504011155,264.6048494261122)" fill="#00a19d"></use><use xlink:href="#bbburst-shape-6" width="35.07957221636578" opacity="0.09012318247905338" transform="matrix(0.8999875685671307,-0.4359155611177745,0.4359155611177745,0.8999875685671307,495.6397354749854,340.8544346283412)" fill="#ffa6d5"></use><use xlink:href="#bbburst-shape-4" width="16.93962282345249" opacity="0.6599227539700808" transform="matrix(0.8058874594036073,-0.5920687483527561,0.5920687483527561,0.8058874594036073,196.3005569681914,230.40181866194632)" fill="#2c2891"></use><use xlink:href="#bbburst-shape-1" width="25.9765169342757" opacity="0.3875198687564154" transform="matrix(0.9462550964079669,-0.3234212307841731,0.3234212307841731,0.9462550964079669,355.47645738354754,-232.20587528343276)" fill="#2c2891"></use><use xlink:href="#bbburst-shape-6" width="6.323144053441008" opacity="0.9702229591151695" transform="matrix(0.9845514306951217,0.17509563191635838,-0.17509563191635838,0.9845514306951217,480.1868752537476,3.705650079834527)" fill="#2c2891"></use><use xlink:href="#bbburst-shape-4" width="13.772684230689315" opacity="0.6253779613911703" transform="matrix(0.7225784273562917,0.691288952840495,-0.691288952840495,0.7225784273562917,516.267878128331,40.54715102655916)" fill="#00a19d"></use><use xlink:href="#bbburst-shape-6" width="12.045069382030478" opacity="0.6885414847323545" transform="matrix(0.9756224904155572,0.21945559048551488,-0.21945559048551488,0.9756224904155572,344.9216306065481,-21.217652285344627)" fill="#2c2891"></use><use xlink:href="#bbburst-shape-1" width="10.440084234025436" opacity="0.771799195800426" transform="matrix(0.8993346674686076,-0.43726097000433173,0.43726097000433173,0.8993346674686076,133.91928129118676,97.92498962280246)" fill="#00a19d"></use><use xlink:href="#bbburst-shape-4" width="8.59058174838929" opacity="0.7854098274119568" transform="matrix(0.999868379817166,-0.016224149956017953,0.016224149956017953,0.999868379817166,343.1581338952142,-84.74394393150982)" fill="#2c2891"></use><use xlink:href="#bbburst-shape-6" width="21.054185647093725" opacity="0.49597747706827455" transform="matrix(0.9977007359314736,-0.06777345735460188,0.06777345735460188,0.9977007359314736,139.86653594940222,45.53273632588355)" fill="#ff5c58"></use><use xlink:href="#bbburst-shape-4" width="9.758893479442692" opacity="0.7196702061725901" transform="matrix(0.9989326638393446,-0.04619018418268967,0.04619018418268967,0.9989326638393446,253.25713269003617,26.883304551530102)" fill="#ff5c58"></use><use xlink:href="#bbburst-shape-1" width="22.301363676422586" opacity="0.5670317926625112" transform="matrix(0.9985503635483011,-0.05382537930712424,0.05382537930712424,0.9985503635483011,558.8332900117882,37.12620372843833)" fill="#2c2891"></use><use xlink:href="#bbburst-shape-1" width="16.286764873317104" opacity="0.6146462108614119" transform="matrix(0.990790772855862,-0.1354017888496441,0.1354017888496441,0.990790772855862,501.8036011091374,-51.450780146958095)" fill="#2c2891"></use><use xlink:href="#bbburst-shape-4" width="28.397595090214708" opacity="0.19158081913577996" transform="matrix(0.9974699293026397,-0.07108966265911641,0.07108966265911641,0.9974699293026397,52.92067028584969,201.12663178411282)" fill="#2c2891"></use><use xlink:href="#bbburst-shape-1" width="29.93033954362535" opacity="0.2975898672573498" transform="matrix(0.8315005250259134,-0.5555239660731393,0.5555239660731393,0.8315005250259134,-57.86286965297924,299.52491573044796)" fill="#2c2891"></use><use xlink:href="#bbburst-shape-4" width="7.289920734745995" opacity="0.8448465036220996" transform="matrix(0.747913482663952,-0.6637962205748676,0.6637962205748676,0.747913482663952,64.40266011766937,84.88184858964775)" fill="#2c2891"></use><use xlink:href="#bbburst-shape-1" width="38.01111598969176" opacity="-0.11749948152110301" transform="matrix(0.8583734158822525,0.5130254174079816,-0.5130254174079816,0.8583734158822525,228.63326853685297,-303.9303913696393)" fill="#2c2891"></use><use xlink:href="#bbburst-shape-4" width="42.21120268442567" opacity="-0.10083541402491192" transform="matrix(0.9803614983431272,-0.197208855192708,0.197208855192708,0.9803614983431272,656.1634056958891,-332.6955511447309)" fill="#2c2891"></use><use xlink:href="#bbburst-shape-6" width="7.8120725592286915" opacity="0.835162535658966" transform="matrix(0.9942537396061315,-0.10704906015104872,0.10704906015104872,0.9942537396061315,393.72573460301055,-59.474161465033944)" fill="#ffbd9b"></use><use xlink:href="#bbburst-shape-4" width="36.565262467649084" opacity="0.10308766695007432" transform="matrix(0.7175855307582383,0.6964703913637804,-0.6964703913637804,0.7175855307582383,382.90365756775316,388.4775187934822)" fill="#2c2891"></use><use xlink:href="#bbburst-shape-4" width="5.0560127309500835" opacity="0.9656321947977098" transform="matrix(0.9324737416486286,0.36123776261045376,-0.36123776261045376,0.9324737416486286,545.946568119494,11.112819600345347)" fill="#2c2891"></use><use xlink:href="#bbburst-shape-4" width="16.931043271934733" opacity="0.5458983518745768" transform="matrix(0.9795448019228115,-0.2012261936876011,0.2012261936876011,0.9795448019228115,441.74216410501447,167.13042552591202)" fill="#ff5c58"></use><use xlink:href="#bbburst-shape-4" width="15.001458757647836" opacity="0.6613748878972576" transform="matrix(0.9203151010702032,-0.391177855638764,0.391177855638764,0.9203151010702032,257.90314169535384,-116.06861315428623)" fill="#ffbd9b"></use><use xlink:href="#bbburst-shape-1" width="8.210660982110065" opacity="0.7689718085250734" transform="matrix(0.9246262649298603,0.38087566239109555,-0.38087566239109555,0.9246262649298603,454.823708354447,-16.388327758805644)" fill="#2c2891"></use><use xlink:href="#bbburst-shape-4" width="15.657267740344293" opacity="0.6438552001432667" transform="matrix(0.9166416494916959,-0.3997100028985299,0.3997100028985299,0.9166416494916959,72.85003452726431,43.85678615412672)" fill="#2c2891"></use><use xlink:href="#bbburst-shape-6" width="40.008903609994206" opacity="0.21335584953329156" transform="matrix(0.9795831466770597,0.20103944574702262,-0.20103944574702262,0.9795831466770597,641.3563592776648,308.6374109645167)" fill="#ff5c58"></use><use xlink:href="#bbburst-shape-6" width="13.586889318752892" opacity="0.705855580176378" transform="matrix(0.9702981062896175,0.24191234968637307,-0.24191234968637307,0.9702981062896175,370.57459964943735,-46.478099497971584)" fill="#ffbd9b"></use><use xlink:href="#bbburst-shape-4" width="7.241217398063364" opacity="0.8054034894404813" transform="matrix(0.9790269457728911,-0.20373080142826874,0.20373080142826874,0.9790269457728911,264.5168680071303,80.71040517208996)" fill="#2c2891"></use><use xlink:href="#bbburst-shape-1" width="30.289608279879996" opacity="0.28949035509623056" transform="matrix(0.9714830375803246,0.23710906286708144,-0.23710906286708144,0.9714830375803246,797.1974810275659,48.959014748200275)" fill="#ffbd9b"></use><use xlink:href="#bbburst-shape-6" width="6.8361303724170055" opacity="0.8243035178840721" transform="matrix(0.9907544788460603,-0.13566710229997364,0.13566710229997364,0.9907544788460603,365.5782137218114,-71.41127892466636)" fill="#00a19d"></use><use xlink:href="#bbburst-shape-6" width="7.942400060050854" opacity="0.836475818214258" transform="matrix(0.7732093676939189,-0.6341508288336223,0.6341508288336223,0.7732093676939189,88.21760796232772,44.406301838820866)" fill="#2c2891"></use><use xlink:href="#bbburst-shape-6" width="8.500673868787578" opacity="0.7656071912681645" transform="matrix(0.918603280271518,-0.3951809882502027,0.3951809882502027,0.918603280271518,270.7294384201817,-66.03946128577377)" fill="#ff5c58"></use><use xlink:href="#bbburst-shape-1" width="16.81956281157668" opacity="0.6351688013399948" transform="matrix(0.969613877252219,0.2446404076188533,-0.2446404076188533,0.969613877252219,356.1047344349391,-85.30899718946017)" fill="#ff5c58"></use><use xlink:href="#bbburst-shape-4" width="7.033521537552617" opacity="0.9090134564790666" transform="matrix(0.99165716335098,0.12890333732951959,-0.12890333732951959,0.99165716335098,476.4858733204754,-26.590686226119715)" fill="#2c2891"></use><use xlink:href="#bbburst-shape-6" width="7.394801997567037" opacity="0.9103008098059405" transform="matrix(0.776626864168193,-0.629960882795336,0.629960882795336,0.776626864168193,181.42871167116067,109.36292040541292)" fill="#00a19d"></use><use xlink:href="#bbburst-shape-4" width="30.14633796895828" opacity="0.3136046771339367" transform="matrix(0.9189107810768674,-0.3944654312112806,0.3944654312112806,0.9189107810768674,406.15781438460465,-214.17668426039762)" fill="#2c2891"></use><use xlink:href="#bbburst-shape-1" width="14.608812300065342" opacity="0.7507351437181123" transform="matrix(0.9625095012041187,0.27124796790353783,-0.27124796790353783,0.9625095012041187,602.3187444706933,62.126307097544725)" fill="#ffa6d5"></use><use xlink:href="#bbburst-shape-6" width="4.759616408945138" opacity="0.9436473483307555" transform="matrix(0.7343703120069334,-0.6787490293494639,0.6787490293494639,0.7343703120069334,147.8920145920962,93.8602354426792)" fill="#ff5c58"></use><use xlink:href="#bbburst-shape-4" width="12.483619774449764" opacity="0.7103116011380055" transform="matrix(0.7182289254507569,-0.6958068774062608,0.6958068774062608,0.7182289254507569,241.3568237574542,77.31963347444088)" fill="#ffa6d5"></use><use xlink:href="#bbburst-shape-4" width="30.134807928395283" opacity="0.02355486511976501" transform="matrix(0.9665830157152393,0.2563538057662369,-0.2563538057662369,0.9665830157152393,122.69385789405082,-234.69375358214646)" fill="#ffa6d5"></use><use xlink:href="#bbburst-shape-4" width="25.18567690848852" opacity="0.2783910581195179" transform="matrix(0.9830923049662129,0.18311067668549183,-0.18311067668549183,0.9830923049662129,526.5945668293564,322.48073035105875)" fill="#2c2891"></use><use xlink:href="#bbburst-shape-6" width="8.088750416381322" opacity="0.8306401574906332" transform="matrix(0.9084250246472303,-0.4180478137661756,0.4180478137661756,0.9084250246472303,235.6860998385054,114.24823017770711)" fill="#ffa6d5"></use><use xlink:href="#bbburst-shape-4" width="15.199926744863687" opacity="0.6716328747630147" transform="matrix(0.9997314245281125,0.023174960862771463,-0.023174960862771463,0.9997314245281125,543.4158231110912,41.69637013087407)" fill="#00a19d"></use><use xlink:href="#bbburst-shape-4" width="11.731004920069175" opacity="0.723298111073703" transform="matrix(0.8124937990064096,0.582969833332851,-0.582969833332851,0.8124937990064096,639.7895324982537,195.58703782268395)" fill="#ff5c58"></use><use xlink:href="#bbburst-shape-1" width="13.586881301001059" opacity="0.6670404431143168" transform="matrix(0.8628633462085262,0.505437281737136,-0.505437281737136,0.8628633462085262,588.1591262797762,201.0463454897175)" fill="#2c2891"></use><use xlink:href="#bbburst-shape-4" width="5.074755754216324" opacity="0.9544651630028911" transform="matrix(0.9683947132649775,0.24942269207199655,-0.24942269207199655,0.9683947132649775,479.8288879524103,22.70260802503026)" fill="#ff5c58"></use><use xlink:href="#bbburst-shape-4" width="19.869047410761098" opacity="0.5821627143943027" transform="matrix(0.9289191283213466,0.3702826664032624,-0.3702826664032624,0.9289191283213466,687.5699831559605,139.85643367416083)" fill="#ffa6d5"></use><use xlink:href="#bbburst-shape-4" width="4.8181217156288705" opacity="0.9140025348165747" transform="matrix(0.9996107728830835,-0.027898077641380553,0.027898077641380553,0.9996107728830835,355.1236975713119,-22.51792548085939)" fill="#ffa6d5"></use><use xlink:href="#bbburst-shape-6" width="8.513399203617283" opacity="0.8286686648176651" transform="matrix(0.9404443883679762,-0.3399475729979304,0.3399475729979304,0.9404443883679762,246.14900850496264,101.11084940752312)" fill="#ff5c58"></use><use xlink:href="#bbburst-shape-1" width="10.860584860208101" opacity="0.7197565333880293" transform="matrix(0.734359279193125,-0.6787609660719698,0.6787609660719698,0.734359279193125,-1.577374097476138,108.01610585118135)" fill="#ffa6d5"></use><use xlink:href="#bbburst-shape-1" width="27.471927507687226" opacity="0.32307752245940946" transform="matrix(0.929204617981859,-0.3695656611769922,0.3695656611769922,0.929204617981859,85.51413063721995,-229.44584308902972)" fill="#ff5c58"></use><use xlink:href="#bbburst-shape-4" width="6.45740030760995" opacity="0.8917960663767645" transform="matrix(0.9131188222361407,-0.40769353254385,0.40769353254385,0.9131188222361407,189.8573507248662,15.474038564003024)" fill="#00a19d"></use><use xlink:href="#bbburst-shape-1" width="19.490852741060877" opacity="0.5382123000712078" transform="matrix(0.7897818281773212,0.6133878576242672,-0.6133878576242672,0.7897818281773212,456.43322748670414,-23.58459374716699)" fill="#00a19d"></use><use xlink:href="#bbburst-shape-6" width="11.48475799389546" opacity="0.8038643770861282" transform="matrix(0.9262848965910438,-0.37682395139815517,0.37682395139815517,0.9262848965910438,298.5116883045007,101.02713826260208)" fill="#00a19d"></use><use xlink:href="#bbburst-shape-4" width="13.796101282120008" opacity="0.663159811303567" transform="matrix(0.8903383752778594,0.45529943719225213,-0.45529943719225213,0.8903383752778594,676.8633033589006,153.85873168665916)" fill="#ff5c58"></use><use xlink:href="#bbburst-shape-4" width="25.71234578943198" opacity="0.22612189924163983" transform="matrix(0.9938049267821798,-0.11113850594400773,0.11113850594400773,0.9938049267821798,661.7336768080072,143.70582713995833)" fill="#2c2891"></use><use xlink:href="#bbburst-shape-4" width="6.512937236393833" opacity="0.9372196198374414" transform="matrix(0.9885704966791569,-0.15075932175333345,0.15075932175333345,0.9885704966791569,364.7240125738169,5.603419522245986)" fill="#2c2891"></use><use xlink:href="#bbburst-shape-1" width="16.761332992271782" opacity="0.5762893543297595" transform="matrix(0.749567015956433,0.6619284618372052,-0.6619284618372052,0.749567015956433,705.9867296512208,-90.0134404112039)" fill="#ffbd9b"></use><use xlink:href="#bbburst-shape-4" width="20.233320363978244" opacity="0.5204740466020488" transform="matrix(0.9911271486999407,0.13291717387127117,-0.13291717387127117,0.9911271486999407,458.5849582964387,217.45572202220148)" fill="#00a19d"></use><use xlink:href="#bbburst-shape-4" width="29.027649296751186" opacity="0.1871409804703541" transform="matrix(0.9991491662852925,0.04124249642547135,-0.04124249642547135,0.9991491662852925,700.933115731504,210.56527891835037)" fill="#ffbd9b"></use><use xlink:href="#bbburst-shape-4" width="10.866071247025461" opacity="0.6466487674700834" transform="matrix(0.9925948814076497,-0.12147181320509605,0.12147181320509605,0.9925948814076497,323.3628831581978,-153.75382238867655)" fill="#00a19d"></use><use xlink:href="#bbburst-shape-1" width="44.55959471187732" opacity="-0.10502964843861906" transform="matrix(0.9983686353830614,0.05709700415401612,-0.05709700415401612,0.9983686353830614,753.742277677499,349.517424696912)" fill="#ffa6d5"></use><use xlink:href="#bbburst-shape-4" width="11.535148213279223" opacity="0.8085750331066905" transform="matrix(0.9878718356919746,0.15527149206009588,-0.15527149206009588,0.9878718356919746,527.862262164672,52.0783887554623)" fill="#ffbd9b"></use><use xlink:href="#bbburst-shape-6" width="28.232753616500982" opacity="0.4146836134945121" transform="matrix(0.8739795170933563,-0.4859627595827315,0.4859627595827315,0.8739795170933563,-52.8200983913826,151.1379061988581)" fill="#00a19d"></use><use xlink:href="#bbburst-shape-4" width="9.342380857497334" opacity="0.7209427400464852" transform="matrix(0.707649786169367,0.7065633588960364,-0.7065633588960364,0.707649786169367,804.6699186509354,106.22198065340677)" fill="#00a19d"></use><use xlink:href="#bbburst-shape-4" width="8.737470601493536" opacity="0.8450727454865059" transform="matrix(0.8812396626519158,-0.4726697123458809,0.4726697123458809,0.8812396626519158,272.62416828966127,25.801344615185258)" fill="#ffa6d5"></use><use xlink:href="#bbburst-shape-4" width="19.206490304717978" opacity="0.47142918956759317" transform="matrix(0.9868027217297765,-0.16192710825153808,0.16192710825153808,0.9868027217297765,363.7355810772593,-227.95386615144096)" fill="#00a19d"></use><use xlink:href="#bbburst-shape-6" width="8.726666656917127" opacity="0.8108189400681932" transform="matrix(0.7377618011197309,-0.6750611267200702,0.6750611267200702,0.7377618011197309,62.51365142282367,163.69982678542766)" fill="#2c2891"></use><use xlink:href="#bbburst-shape-6" width="26.95447299383749" opacity="0.13639722025534817" transform="matrix(0.9614786178028093,0.27487973280691197,-0.27487973280691197,0.9614786178028093,626.3516245263054,378.1643161913454)" fill="#ff5c58"></use><use xlink:href="#bbburst-shape-1" width="12.69072135827458" opacity="0.7201706445638383" transform="matrix(0.8905181433669145,0.45494772923308835,-0.45494772923308835,0.8905181433669145,636.5073658509602,-69.68808290719454)" fill="#ffa6d5"></use><use xlink:href="#bbburst-shape-4" width="22.905570418394404" opacity="0.3456437843403667" transform="matrix(0.9999681640203526,-0.007979407607415666,0.007979407607415666,0.9999681640203526,632.5217844824097,160.17462454911941)" fill="#00a19d"></use><use xlink:href="#bbburst-shape-4" width="25.027838862283105" opacity="0.5177549844450793" transform="matrix(0.8509285938265282,-0.5252813800320808,0.5252813800320808,0.8509285938265282,145.2029812641008,280.5438646030011)" fill="#00a19d"></use><use xlink:href="#bbburst-shape-6" width="5.247806396617657" opacity="0.9658264070041502" transform="matrix(0.9225023584951066,-0.3859914488314032,0.3859914488314032,0.9225023584951066,237.02612186216672,46.10378565800562)" fill="#00a19d"></use><use xlink:href="#bbburst-shape-1" width="19.474568898469695" opacity="0.5262318736874556" transform="matrix(0.8946549291847256,-0.44675782890227417,0.44675782890227417,0.8946549291847256,-0.5542901701658991,42.13992723916084)" fill="#ff5c58"></use><use xlink:href="#bbburst-shape-1" width="29.45049312942177" opacity="0.3341456846104425" transform="matrix(0.9337130351747852,-0.35802230090413417,0.35802230090413417,0.9337130351747852,36.83099208577909,-185.55361545257423)" fill="#ffa6d5"></use><use xlink:href="#bbburst-shape-4" width="13.040077739188227" opacity="0.5880868648703098" transform="matrix(0.9553035814873261,-0.29562656713747437,0.29562656713747437,0.9553035814873261,459.6973708761035,-1.1330232700320266)" fill="#2c2891"></use><use xlink:href="#bbburst-shape-1" width="29.86934063567062" opacity="0.1967114033294225" transform="matrix(0.9795752223604582,-0.20107805384342387,0.20107805384342387,0.9795752223604582,626.1880823898582,-154.53555297384221)" fill="#00a19d"></use><use xlink:href="#bbburst-shape-4" width="12.568708366732405" opacity="0.7469847020668265" transform="matrix(0.9887931429046863,0.14929206457368258,-0.14929206457368258,0.9887931429046863,565.3528862160467,24.829891806624403)" fill="#ffbd9b"></use><use xlink:href="#bbburst-shape-6" width="6.761307569578855" opacity="0.912363067896405" transform="matrix(0.7221318582243925,-0.6917554331824116,0.6917554331824116,0.7221318582243925,157.84371670288607,99.8037859285078)" fill="#ffa6d5"></use><use xlink:href="#bbburst-shape-4" width="5.222874709619071" opacity="0.9169687459215935" transform="matrix(0.7590433054021998,-0.6510401374140483,0.6510401374140483,0.7590433054021998,101.06140149434805,90.2985215486288)" fill="#ffa6d5"></use><use xlink:href="#bbburst-shape-4" width="25.571764943010088" opacity="0.25395248735087217" transform="matrix(0.8905319754552213,0.4549206531823117,-0.4549206531823117,0.8905319754552213,702.1321669965154,-270.8785917179403)" fill="#ffa6d5"></use><use xlink:href="#bbburst-shape-4" width="11.69193782307606" opacity="0.7140984101873349" transform="matrix(0.9789968045136049,-0.20387559135941305,0.20387559135941305,0.9789968045136049,289.19990997670783,136.0894415721517)" fill="#2c2891"></use><use xlink:href="#bbburst-shape-6" width="24.686073833632694" opacity="0.03191983473738147" transform="matrix(0.9203288324841823,-0.39114554848330046,0.39114554848330046,0.9203288324841823,599.1842252328445,271.40568269214106)" fill="#00a19d"></use><use xlink:href="#bbburst-shape-4" width="20.948245107204336" opacity="0.45605713626841915" transform="matrix(0.7550210815045115,-0.6557005158483237,0.6557005158483237,0.7550210815045115,13.80430268927779,-110.65777384888588)" fill="#2c2891"></use><use xlink:href="#bbburst-shape-4" width="14.762466622854744" opacity="0.6792433950525134" transform="matrix(0.8890641866851263,0.4577825596873639,-0.4577825596873639,0.8890641866851263,625.0685077639027,-94.93241844197456)" fill="#00a19d"></use><use xlink:href="#bbburst-shape-1" width="7.361433832467201" opacity="0.7796201565496059" transform="matrix(0.9614196615187509,0.2750858674035627,-0.2750858674035627,0.9614196615187509,477.99829936299346,-80.56032514708255)" fill="#ff5c58"></use><use xlink:href="#bbburst-shape-1" width="15.34383523045137" opacity="0.6492352663857367" transform="matrix(0.8836428074467662,0.46816171228283643,-0.46816171228283643,0.8836428074467662,714.9297508283546,-39.71757740715731)" fill="#ffa6d5"></use><use xlink:href="#bbburst-shape-4" width="4.232232781874608" opacity="0.9419165696075863" transform="matrix(0.9850781665732278,0.1721075412081877,-0.1721075412081877,0.9850781665732278,444.017105636067,-7.277003106866232)" fill="#ffa6d5"></use><use xlink:href="#bbburst-shape-1" width="6.152855799878201" opacity="0.9015547095655991" transform="matrix(0.7458598188333049,0.6661029429825014,-0.6661029429825014,0.7458598188333049,694.2624796572277,132.09720671823203)" fill="#ffa6d5"></use><use xlink:href="#bbburst-shape-6" width="20.761479066068397" opacity="0.14172525278040038" transform="matrix(0.9075110015285908,0.42002831107506805,-0.42002831107506805,0.9075110015285908,464.9936395365186,407.3465813312138)" fill="#ff5c58"></use><use xlink:href="#bbburst-shape-6" width="9.411066761458748" opacity="0.7532877204265717" transform="matrix(0.9977386227356099,-0.06721339674237764,0.06721339674237764,0.9977386227356099,359.5879988226567,-109.44774983712341)" fill="#2c2891"></use><use xlink:href="#bbburst-shape-6" width="28.408757622271104" opacity="-0.0059752607803746915" transform="matrix(0.9262898024604442,0.37681189187416997,-0.37681189187416997,0.9262898024604442,267.08125450971,-338.86186780052486)" fill="#ffbd9b"></use><use xlink:href="#bbburst-shape-4" width="24.404937532672772" opacity="0.22810924360980211" transform="matrix(0.979379057800431,0.20203133702953108,-0.20203133702953108,0.979379057800431,341.78937807374007,-317.4696666546189)" fill="#ff5c58"></use><use xlink:href="#bbburst-shape-1" width="14.412778969315259" opacity="0.6809785186675619" transform="matrix(0.7133952664329096,0.700761866707313,-0.700761866707313,0.7133952664329096,795.8731518805331,187.29346998429054)" fill="#ffbd9b"></use><use xlink:href="#bbburst-shape-6" width="8.67595399506652" opacity="0.8292116181596373" transform="matrix(0.8238567487384725,0.5667980747656729,-0.5667980747656729,0.8238567487384725,699.8784120289022,63.67597472465616)" fill="#00a19d"></use><use xlink:href="#bbburst-shape-6" width="36.87219347891411" opacity="0.07632151273076337" transform="matrix(0.9908465101971657,0.13499330809376436,-0.13499330809376436,0.9908465101971657,134.89265525600968,-285.64794130736806)" fill="#2c2891"></use></svg>